simulation
nRows=61
nColumns=15
endheader
time  TH_x TH_y TH_z SC_y  SC_z  SC_x  AC_y  AC_z  AC_x  GH_y  GH_z  GH_yy  EL_x  PS_y
0.750092  0.000000  0.000000  0.000000  -18.861189  14.507390  32.857143  49.819530  -33.358220  4.079790  -41.147751  16.549031  70.123070  32.134528  89.583044
0.750460  0.000000  0.000000  0.000000  -18.861189  14.507390  41.428571  45.535122  -39.705419  -3.100535  -41.147751  16.549031  70.123070  32.134528  89.583044
0.750828  0.000000  0.000000  0.000000  -18.861189  14.507390  50.000000  39.719592  -45.523569  -11.670189  -41.147751  16.549031  70.123070  32.134528  89.583044
0.751196  0.000000  0.000000  0.000000  -38.551322  8.134089  -10.000000  48.087957  17.098397  10.299679  -0.498494  50.199095  -19.109339  46.875316  93.450054
0.751564  0.000000  0.000000  0.000000  -38.551322  8.134089  -1.428571  49.485220  10.644748  4.485536  -0.498494  50.199095  -19.109339  46.875316  93.450054
0.751932  0.000000  0.000000  0.000000  -38.551322  8.134089  7.142857  50.201194  4.088542  -1.085021  -0.498494  50.199095  -19.109339  46.875316  93.450054
0.752300  0.000000  0.000000  0.000000  -38.551322  8.134089  15.714286  50.277072  -2.505517  -6.564676  -0.498494  50.199095  -19.109339  46.875316  93.450054
0.752668  0.000000  0.000000  0.000000  -38.551322  8.134089  24.285714  49.717213  -9.076469  -12.099870  -0.498494  50.199095  -19.109339  46.875316  93.450054
0.753036  0.000000  0.000000  0.000000  -38.551322  8.134089  32.857143  48.489432  -15.561106  -17.840849  -0.498494  50.199095  -19.109339  46.875316  93.450054
0.753404  0.000000  0.000000  0.000000  -38.551322  8.134089  41.428571  46.523093  -21.887564  -23.951700  -0.498494  50.199095  -19.109339  46.875316  93.450054
0.753773  0.000000  0.000000  0.000000  -38.551322  8.134089  50.000000  43.706236  -27.968074  -30.619413  -0.498494  50.199095  -19.109339  46.875316  93.450054
0.754141  0.000000  0.000000  0.000000  -35.166422  6.700483  -10.000000  50.403469  12.824962  7.584623  -11.175071  66.549235  -33.756554  73.004918  88.217444
0.754509  0.000000  0.000000  0.000000  -35.166422  6.700483  -1.428571  51.310477  6.172043  2.101652  -11.175071  66.549235  -33.756554  73.004918  88.217444
0.754877  0.000000  0.000000  0.000000  -35.166422  6.700483  7.142857  51.573972  -0.535516  -3.244371  -11.175071  66.549235  -33.756554  73.004918  88.217444
0.755245  0.000000  0.000000  0.000000  -35.166422  6.700483  15.714286  51.209892  -7.238408  -8.602141  -11.175071  66.549235  -33.756554  73.004918  88.217444
0.755613  0.000000  0.000000  0.000000  -35.166422  6.700483  24.285714  50.196202  -13.876836  -14.121234  -11.175071  66.549235  -33.756554  73.004918  88.217444
0.755981  0.000000  0.000000  0.000000  -35.166422  6.700483  32.857143  48.471303  -20.384317  -19.963203  -11.175071  66.549235  -33.756554  73.004918  88.217444
0.756349  0.000000  0.000000  0.000000  -35.166422  6.700483  41.428571  45.930218  -26.680456  -26.312500  -11.175071  66.549235  -33.756554  73.004918  88.217444
0.756717  0.000000  0.000000  0.000000  -35.166422  6.700483  50.000000  42.420741  -32.662066  -33.385594  -11.175071  66.549235  -33.756554  73.004918  88.217444
0.757085  0.000000  0.000000  0.000000  -29.690004  13.109810  -10.000000  56.468181  14.311876  18.310704  19.198420  -4.402932  -3.813301  66.224439  86.365909
0.757453  0.000000  0.000000  0.000000  -29.690004  13.109810  -1.428571  57.355640  7.126248  13.551297  19.198420  -4.402932  -3.813301  66.224439  86.365909
0.757821  0.000000  0.000000  0.000000  -29.690004  13.109810  7.142857  57.638662  -0.106502  8.939912  19.198420  -4.402932  -3.813301  66.224439  86.365909
0.758189  0.000000  0.000000  0.000000  -29.690004  13.109810  15.714286  57.338369  -7.338567  4.326353  19.198420  -4.402932  -3.813301  66.224439  86.365909
0.758557  0.000000  0.000000  0.000000  -29.690004  13.109810  24.285714  56.432353  -14.522038  -0.439802  19.198420  -4.402932  -3.813301  66.224439  86.365909
0.758925  0.000000  0.000000  0.000000  -29.690004  13.109810  32.857143  54.851761  -21.602874  -5.524852  19.198420  -4.402932  -3.813301  66.224439  86.365909
0.759293  0.000000  0.000000  0.000000  -29.690004  13.109810  41.428571  52.472518  -28.513474  -11.128536  19.198420  -4.402932  -3.813301  66.224439  86.365909
0.759661  0.000000  0.000000  0.000000  -29.690004  13.109810  50.000000  49.100879  -35.162428  -17.504511  19.198420  -4.402932  -3.813301  66.224439  86.365909
0.760029  0.000000  0.000000  0.000000  -41.698754  17.856383  -10.000000  46.117032  -0.937707  11.657973  70.958636  25.048369  18.136101  47.457320  92.194517
0.760397  0.000000  0.000000  0.000000  -41.698754  17.856383  -1.428571  45.697248  -7.099421  5.681946  70.958636  25.048369  18.136101  47.457320  92.194517
0.760766  0.000000  0.000000  0.000000  -41.698754  17.856383  7.142857  44.614070  -13.182695  -0.455614  70.958636  25.048369  18.136101  47.457320  92.194517
0.761134  0.000000  0.000000  0.000000  -41.698754  17.856383  15.714286  42.816874  -19.112714  -6.902726  70.958636  25.048369  18.136101  47.457320  92.194517
0.761502  0.000000  0.000000  0.000000  -41.698754  17.856383  24.285714  40.224509  -24.802033  -13.819966  70.958636  25.048369  18.136101  47.457320  92.194517
0.761870  0.000000  0.000000  0.000000  -41.698754  17.856383  32.857143  36.728340  -30.143697  -21.381569  70.958636  25.048369  18.136101  47.457320  92.194517
0.762238  0.000000  0.000000  0.000000  -41.698754  17.856383  41.428571  32.203824  -35.004364  -29.767185  70.958636  25.048369  18.136101  47.457320  92.194517
0.762606  0.000000  0.000000  0.000000  -41.698754  17.856383  50.000000  26.539259  -39.219508  -39.135696  70.958636  25.048369  18.136101  47.457320  92.194517
0.762974  0.000000  0.000000  0.000000  -8.222582  -13.522021  -10.000000  48.688012  3.314964  1.475034  -9.301458  27.171609  33.967849  30.940870  88.210962
0.763342  0.000000  0.000000  0.000000  -8.222582  -13.522021  -1.428571  48.697206  -3.128950  -4.179980  -9.301458  27.171609  33.967849  30.940870  88.210962
0.763710  0.000000  0.000000  0.000000  -8.222582  -13.522021  7.142857  48.063949  -9.542087  -9.904971  -9.301458  27.171609  33.967849  30.940870  88.210962
0.764078  0.000000  0.000000  0.000000  -8.222582  -13.522021  15.714286  46.754194  -15.858214  -15.848369  -9.301458  27.171609  33.967849  30.940870  88.210962
0.764446  0.000000  0.000000  0.000000  -8.222582  -13.522021  24.285714  44.698078  -22.002018  -22.171417  -9.301458  27.171609  33.967849  30.940870  88.210962
0.764814  0.000000  0.000000  0.000000  -8.222582  -13.522021  32.857143  41.788468  -27.881991  -29.055248  -9.301458  27.171609  33.967849  30.940870  88.210962
0.765182  0.000000  0.000000  0.000000  -8.222582  -13.522021  41.428571  37.882963  -33.381983  -36.703053  -9.301458  27.171609  33.967849  30.940870  88.210962
0.765550  0.000000  0.000000  0.000000  -8.222582  -13.522021  50.000000  32.817244  -38.352172  -45.330161  -9.301458  27.171609  33.967849  30.940870  88.210962
0.765918  0.000000  0.000000  0.000000  -34.936824  5.199501  -10.000000  51.034026  32.714283  25.737610  -14.268057  14.493034  27.080419  18.788984  94.100772
0.766286  0.000000  0.000000  0.000000  -34.936824  5.199501  -1.428571  53.969173  25.907037  19.756647  -14.268057  14.493034  27.080419  18.788984  94.100772
0.766654  0.000000  0.000000  0.000000  -34.936824  5.199501  7.142857  55.999657  18.881671  14.440257  -14.268057  14.493034  27.080419  18.788984  94.100772
0.767022  0.000000  0.000000  0.000000  -34.936824  5.199501  15.714286  57.291327  11.717587  9.557441  -14.268057  14.493034  27.080419  18.788984  94.100772
0.767391  0.000000  0.000000  0.000000  -34.936824  5.199501  24.285714  57.945570  4.475023  4.923816  -14.268057  14.493034  27.080419  18.788984  94.100772
0.767759  0.000000  0.000000  0.000000  -34.936824  5.199501  32.857143  58.012286  -2.796100  0.381537  -14.268057  14.493034  27.080419  18.788984  94.100772
0.768127  0.000000  0.000000  0.000000  -34.936824  5.199501  41.428571  57.496510  -10.049468  -4.217573  -14.268057  14.493034  27.080419  18.788984  94.100772
0.768495  0.000000  0.000000  0.000000  -34.936824  5.199501  50.000000  56.359062  -17.236532  -9.027695  -14.268057  14.493034  27.080419  18.788984  94.100772
0.768863  0.000000  0.000000  0.000000  -22.435498  -1.893694  -10.000000  52.925846  30.520813  -0.700388  -29.564642  55.089326  -25.525851  28.867993  85.709182
0.769231  0.000000  0.000000  0.000000  -22.435498  -1.893694  -1.428571  55.489647  23.561986  -6.325675  -29.564642  55.089326  -25.525851  28.867993  85.709182
0.769599  0.000000  0.000000  0.000000  -22.435498  -1.893694  7.142857  57.220638  16.421483  -11.376050  -29.564642  55.089326  -25.525851  28.867993  85.709182
0.769967  0.000000  0.000000  0.000000  -22.435498  -1.893694  15.714286  58.261603  9.168943  -16.064450  -29.564642  55.089326  -25.525851  28.867993  85.709182
0.770335  0.000000  0.000000  0.000000  -22.435498  -1.893694  24.285714  58.694999  1.858508  -20.563571  -29.564642  55.089326  -25.525851  28.867993  85.709182
0.770703  0.000000  0.000000  0.000000  -22.435498  -1.893694  32.857143  58.554304  -5.463251  -25.025387  -29.564642  55.089326  -25.525851  28.867993  85.709182
0.771071  0.000000  0.000000  0.000000  -22.435498  -1.893694  41.428571  57.828727  -12.751297  -29.597856  -29.564642  55.089326  -25.525851  28.867993  85.709182
0.771439  0.000000  0.000000  0.000000  -22.435498  -1.893694  50.000000  56.461616  -19.956172  -34.440959  -29.564642  55.089326  -25.525851  28.867993  85.709182
0.771807  0.000000  0.000000  0.000000  -40.341228  13.096867  -10.000000  43.562168  10.402762  -0.963342  25.216141  61.096192  -73.628544  17.639468  85.094906
0.772175  0.000000  0.000000  0.000000  -40.341228  13.096867  -1.428571  44.367624  4.446428  -7.182174  25.216141  61.096192  -73.628544  17.639468  85.094906
